<svg xmlns="http://www.w3.org/2000/svg" xmlns:xlink="http://www.w3.org/1999/xlink" version="1.1" id="swirl-svg" x="0" y="0" viewBox="0 0 108 72" enable-background="new 0 0 108 72" xml:space="preserve">
  <style type="text/css">
    .swirl-back {
      fill: #700000;
    }
    .swirl-front {
      fill: #ed1c24;
    }
  </style>
  <g id="Layer_1_1_"/>
  <g id="Type__x26__Art">
    <path class="swirl-back" d="M56.6 66.1c2.5-0.6 4.6-1.1 6.2-1.6 1.7-0.5 4.1-1.5 6.8-2.7 5.4-2.2 10.7-4.9 15.6-8.1 2.7-1.6 4.6-3 5.1-3.7 13.4-10.7 21.2-25.3 12.7-42 7.6 24.4-12.2 37.8-28.9 44.1 0.5-1 3.1-2.7 5.5-4.1 5.3-3.1 23.8-16.3 14.7-34.7 -0.3-0.5-0.5-1-0.8-1.4 -1.3-2.3-3.3-4.1-6-5.6l0 0c-20-12-71-1-84.1 24.2 10-15.2 30.4-23 48.2-25.6C24.3 11.4-9.3 34.2 5.4 62.9c-8.3-26.5 15.8-40 33.1-45.5 -7.5 3.2-15.2 8.1-19.1 12.4C7.7 42.7 10 60.7 23.7 66.3c21.2 10.1 69.1-1.5 81.8-25.9C95.3 55.7 74.6 63.6 56.6 66.1z"/>
    <path class="swirl-back" d="M55.5 60.4c22.3-5 53.2-25.1 41.2-48.7 8.9 28.6-31.3 39.9-40.5 40.8 -8 0.8-18.8-0.9-20.4-5.2C45 53.9 74 49.9 84.1 32c5.5-9.7 3.9-16.6-2.8-20.2l0 0C65.1 2.1 26.7 9.6 10.5 31.7c11.4-11.4 27.2-18.5 41.7-21C30.1 16 0 36.2 11.8 59.5 3 30.9 43.3 19.3 52.6 18.4c8-0.8 18.7-1.9 20.4 5.2 -9.7-7.5-36.7-2.2-48.3 14.7 -6.1 8.9-3.7 19.3 4.6 22.6C46.4 69 84.1 58.7 97.9 39 88.5 50.2 70.3 58.5 55.5 60.4z"/>
    <path class="swirl-front" d="M55.5 60.4c22.3-5 53.2-25.1 41.2-48.7 8.9 28.6-31.3 39.9-40.5 40.8 -8 0.8-18.8-0.9-20.4-5.2C45 53.9 74 49.9 84.1 32c5.5-9.7 3.9-16.6-2.8-20.2l0 0C65.1 2.1 26.7 9.6 10.5 31.7c11.4-11.4 27.2-18.5 41.7-21C30.1 16 0 36.2 11.8 59.5 3 30.9 43.3 19.3 52.6 18.4c8-0.8 18.7-1.9 20.4 5.2 -9.7-7.5-36.7-2.2-48.3 14.7 -6.1 8.9-3.7 19.3 4.6 22.6C46.4 69 84.1 58.7 97.9 39 88.5 50.2 70.3 58.5 55.5 60.4z"/>
  </g>
</svg>
