<svg xmlns="http://www.w3.org/2000/svg" xmlns:xlink="http://www.w3.org/1999/xlink" version="1.1" id="Layer_1" x="0" y="0" viewBox="0 0 214.9 129.9" enable-background="new 0 0 214.9 129.9" xml:space="preserve">
  <path d="M205.1 0c14.6 34.8-12.2 59.8-40.3 75.2 3-3.2 5.8-6.7 8.1-10.4 4-6.4 6.3-12.3 7.2-17.5 8.3-25.5-2.4-53-78.8-40.1 36.4-4 67 5.4 68.3 16.7 -11-6.8-33.8-10.7-57.9-7.9C55 22.7-23.7 65.7 6.8 121.5 -7.7 77.7 40.5 53.6 68.9 40.9c-20 10.8-30.3 26.3-30.3 26.3 -18.9 27.3-23.6 81.2 85.1 56.2 -41.5 6.3-83.5-2.1-81.9-19.6 7.8 13.1 42 19 74.7 13C175 106.3 239.9 53.3 205.1 0z"/>
  <path d="M192.3 55.4l3.7-13h-26.8c-1.3-0.1-2.3-0.1-3.1-0.1 -4.6 0-6.7 1.1-8.7 4.7l-2.5 4.6 -0.1-2.7c-0.3-5.7-4.1-6.5-8.1-6.5 -0.9 0-2.1 0-3.7 0.1h-13.7l-1 3.5c-1.6-1.7-4.5-3.5-9.5-3.5h-13.3c-0.3-0.4-0.5-0.9-0.8-1.3 -1.8-2.4-5.3-5.2-12.1-5.2H30.8l-13 46h65.7c2.8 0 6.7-0.6 10.6-3.1l-0.9 3.1h16.8l0.4-1.5c1.1 2 2.5 3.4 4.2 4.1 1.3 0.5 3.5 1 5.9 1 1.5 0 2.9-0.2 4.2-0.6l14.1-4 0.9-5.3 0 0.1c0.3 6.3 5.7 6.3 8.3 6.3 0.9 0 2 0 3.3-0.1l2.4-0.1 5.9-10.3 -2.8 10.2h28.6l3.8-13.5h-5.6L192.3 55.4z"/>
  <path fill="#FFD700" d="M48.8 98.1c-1.2 0-2.1-0.7-2.1-1.5V86.1c0-0.8 1-1.5 2.1-1.5h11.7v2.6H51v2.7h6.9c1 0 1.8 0.6 1.8 1.3 0 0.7-0.8 1.3-1.8 1.3H51v3h9.6v2.6H48.8zM80.3 98.2c-0.7 0.1-1.4-0.1-1.9-0.5l-9.3-7.8v8.2h-4.3V86c0-0.8 1-1.5 2.1-1.5 0.7 0 1.1 0.1 1.6 0.5 0 0 2.9 2.5 9.3 7.8v-8.2h4.3v12.1C82.2 97.5 81.4 98.1 80.3 98.2zM89.4 98.1c-1.2 0-2.1-0.7-2.1-1.5V86.1c0-0.8 1-1.5 2.1-1.5h11.7v2.6h-9.6v2.7h6.9c1 0 1.8 0.6 1.8 1.3 0 0.7-0.8 1.3-1.8 1.3h-6.9v3h9.6v2.6H89.4zM118.2 98.1l-3.9-4.8h-4.7v4.8h-4.3v-12c0-0.8 1-1.5 2.1-1.5h8.5c3.6 0 6.2 1.9 6.2 4.3 0 1.7-1.4 3.2-3.5 3.9l4.3 5.3H118.2zM115.1 87.1h-5.5v3.8h5.5c1.5 0 2.7-0.8 2.7-1.9C117.9 87.8 116.6 87.1 115.1 87.1zM135.2 98.3c-5.6 0-10.1-2.9-10.1-7 0-4.3 4.3-7 10.4-7 2.1 0 4.4 0.3 6.1 0.8l-0.9 2.5c-1.4-0.3-3.4-0.6-4.8-0.6 -4.4 0-6.6 1.5-6.6 4.3 0 2.4 2.2 4.3 5.8 4.3 1.8 0 3.1-0.4 3.9-1.1v-3.3h4.2v3.9C142 96.9 138.9 98.3 135.2 98.3zM154.7 92.8v5.3h-4.3v-5.3l-6.4-8.2h4.3l4.3 5.5 4.3-5.5h4.3L154.7 92.8z"/>
  <path fill="#FFFFFF" d="M38 77.6l4.7-16.4H36l-4.7 16.4h-7.8l10.6-37.3h7.8L37.4 56h6.7l4.5-15.8h7.6L45.7 77.6H38zM62.4 49l1.1 6c0.4 2.1 0.4 4.5 0.2 5.4 0.3-0.9 1.3-3.3 3-5.4l4.5-6c1.7-2.3 2.2-2.5 8.5-2.3L65.7 65l-3.5 12.6h-7.7l3.6-12.9 -3.7-18C61.7 46.4 62 46.7 62.4 49zM83.5 77.6H72.2l10.4-37.3h9.9c9.2 0 12.7 6.3 9.3 18.8C98.1 72.6 91 77.6 83.5 77.6zM90.7 45.5h-1.4l-7.6 27h1.6c5 0 7.6-4.9 9.7-12.6C96.3 48 95.2 45.5 90.7 45.5zM99 77.5l8.6-30.8h11.2c6.3 0 8.8 3.3 7.3 8.8 -1.2 4.1-4.6 7.5-7.7 8.6 -0.4 0.1-0.9 0.1-1.2 0.1 0.8 0.1 1.3 0.3 1.5 0.6 1.9 2.4 2.1 6.2 2.3 8.1 0.6 4.6 1.1 7.3 2.8 7.8 -3.2 0.9-6.4 0.1-7.5-0.3 -2.6-1-3.5-7.4-3.7-9.6 -0.2-1.8-0.1-5.3-0.7-9.1 2.1 0.9 4.4 0.9 5.9-4.5 0.6-2.3 1.4-5.8-1.3-5.8 -0.5 0-1.4 0-2.3 0l-7.3 26.1H99zM123.8 77.5l8.7-30.9h8.1l-8.7 30.9H123.8zM151.4 77.7c-7.2 0.3-7-0.1-7.1-2.1L143 46.7c7.4-0.3 7.3 0 7.5 2.4l0.8 14.5c0 0.6 0.2 3.1-0.1 5.5 0.8-2.4 1.9-4.9 2.2-5.5l7.8-14.5c1.2-2.3 1.7-2.6 7.9-2.3L151.4 77.7zM162.6 77.5l8.6-30.9h19l-1.4 4.8h-10.9l-2.3 8.2h8.9l-3.4 4.8h-6.9l-2.3 8.3h11.6l-1.4 4.8H162.6z"/>
  <path fill="#FFFFFF" d="M188.4 72.3c1.6 0 2.9 1.3 2.9 2.9 0 1.6-1.3 2.9-2.9 2.9 -1.6 0-2.9-1.3-2.9-2.9C185.6 73.6 186.9 72.3 188.4 72.3zM188.4 77.2c1.1 0 2-0.9 2-2 0-1.1-0.8-2-2-2 -1.1 0-2 0.9-2 2C186.5 76.3 187.3 77.2 188.4 77.2zM187.3 73.6h1.2c0.8 0 1.2 0.3 1.2 1 0 0.5-0.3 0.8-0.8 0.9l0.8 1.3H189l-0.7-1.2H188v1.2h-0.7V73.6zM188 74.9h0.5c0.3 0 0.5-0.1 0.5-0.4 0-0.3-0.3-0.4-0.6-0.4H188V74.9z"/>
</svg>
